<svg width="5451" height="1024" viewBox="0 0 5451 1024" fill="none" xmlns="http://www.w3.org/2000/svg">
<path d="M46.3566 810.012C54.9056 810.012 63.9156 807.321 72.9257 800.998V318.973C72.9257 302.75 76.0763 296.446 90.4847 288.796L507.886 48.2063C509.231 18.4714 490.308 0 464.661 0C452.942 0 440.34 3.15225 426.815 11.2635L49.5265 228.423C5.39835 254.102 0 262.213 0 313.572V744.699C0 783.43 18.4428 810.012 46.3758 810.012H46.3566ZM226.462 914.075C234.569 914.075 243.559 911.384 253.031 905.06V423.036C253.031 405.468 255.278 400.97 270.129 392.858L687.53 151.808C688.875 122.534 670.432 103.621 644.305 103.621C633.047 103.621 619.984 107.215 606.939 114.423L228.709 332.024C184.581 357.261 179.625 366.718 179.625 417.173V848.762C179.625 887.492 198.99 914.075 226.462 914.075ZM419.169 1024C434.922 1024 453.845 1017.7 476.361 1005.07L829.366 802.343C870.786 778.471 887 753.714 887 703.24L886.097 295.1C886.097 241.032 866.732 213.565 832.959 213.565C818.109 213.565 799.186 219.408 778.034 231.575L424.126 435.645C381.803 460.44 366.934 485.658 366.934 534.767V942.906C366.934 995.168 385.396 1024 419.188 1024H419.169ZM443.49 936.16C441.243 935.699 440.34 934.353 440.34 931.201L443.49 536.113C443.49 519.006 448.447 509.972 463.758 501.419L804.603 300.944C805.948 300.059 807.293 300.059 809.099 300.501C810.904 300.963 812.249 302.308 812.249 305.46L810.904 701.894C810.904 716.752 805.506 728.035 790.637 737.03L447.986 935.699C447.312 936.089 446.561 936.331 445.786 936.407C445.011 936.483 444.228 936.392 443.49 936.141V936.16Z" fill="#6E6ADE"/>
<path d="M1686.6 392.554L1597.76 408.278C1594.05 396.922 1588.15 386.112 1580.06 375.848C1572.19 365.584 1561.49 357.177 1547.94 350.625C1534.39 344.074 1517.45 340.798 1497.13 340.798C1469.37 340.798 1446.21 347.022 1427.63 359.47C1409.05 371.699 1399.77 387.532 1399.77 406.967C1399.77 423.783 1405.99 437.322 1418.45 447.586C1430.91 457.85 1451.01 466.257 1478.77 472.809L1558.75 491.153C1605.08 501.853 1639.61 518.341 1662.34 540.616C1685.07 562.89 1696.43 591.826 1696.43 627.422C1696.43 657.558 1687.69 684.419 1670.21 708.004C1652.94 731.37 1628.8 749.714 1597.76 763.036C1566.95 776.357 1531.22 783.017 1490.57 783.017C1434.19 783.017 1388.18 771.006 1352.56 746.985C1316.94 722.744 1295.09 688.35 1287 643.8L1381.74 629.387C1387.64 654.064 1399.77 672.735 1418.12 685.401C1436.48 697.849 1460.41 704.073 1489.91 704.073C1522.04 704.073 1547.72 697.412 1566.95 684.091C1586.18 670.552 1595.8 654.064 1595.8 634.628C1595.8 618.905 1589.9 605.693 1578.09 594.992C1566.51 584.292 1548.7 576.212 1524.66 570.752L1439.43 552.081C1392.45 541.38 1357.7 524.346 1335.19 500.98C1312.9 477.613 1301.75 448.023 1301.75 412.208C1301.75 382.509 1310.06 356.522 1326.66 334.247C1343.27 311.972 1366.22 294.611 1395.5 282.163C1424.79 269.497 1458.34 263.164 1496.14 263.164C1550.56 263.164 1593.39 274.957 1624.64 298.542C1655.89 321.908 1676.55 353.246 1686.6 392.554Z" fill="white"/>
<path d="M2039.24 269.716V348.332H1764.21V269.716H2039.24ZM1837.97 149.17H1935.98V625.129C1935.98 644.128 1938.82 658.432 1944.5 668.04C1950.19 677.431 1957.51 683.873 1966.47 687.367C1975.65 690.643 1985.59 692.28 1996.3 692.28C2004.17 692.28 2011.05 691.735 2016.95 690.643C2022.85 689.551 2027.44 688.677 2030.72 688.022L2048.42 768.932C2042.74 771.116 2034.65 773.299 2024.16 775.483C2013.67 777.885 2000.56 779.196 1984.82 779.414C1959.04 779.851 1935 775.265 1912.71 765.656C1890.42 756.047 1872.39 741.198 1858.62 721.107C1844.85 701.016 1837.97 675.793 1837.97 645.438V149.17Z" fill="white"/>
<path d="M2294.19 784C2262.29 784 2233.44 778.104 2207.65 766.311C2181.87 754.3 2161.43 736.939 2146.35 714.228C2131.49 691.516 2124.06 663.673 2124.06 630.697C2124.06 602.308 2129.53 578.941 2140.45 560.597C2151.38 542.254 2166.13 527.731 2184.71 517.031C2203.28 506.33 2224.04 498.25 2246.99 492.791C2269.94 487.331 2293.32 483.182 2317.14 480.343C2347.3 476.849 2371.78 474.01 2390.57 471.826C2409.37 469.424 2423.02 465.602 2431.55 460.361C2440.07 455.12 2444.33 446.603 2444.33 434.811V432.518C2444.33 403.91 2436.25 381.744 2420.07 366.021C2404.12 350.298 2380.3 342.436 2348.61 342.436C2315.61 342.436 2289.61 349.752 2270.59 364.383C2251.8 378.796 2238.79 394.847 2231.58 412.536L2139.47 391.572C2150.4 360.998 2166.35 336.321 2187.33 317.541C2208.53 298.542 2232.89 284.784 2260.43 276.267C2287.97 267.532 2316.92 263.164 2347.3 263.164C2367.41 263.164 2388.71 265.566 2411.22 270.371C2433.95 274.957 2455.15 283.474 2474.82 295.921C2494.7 308.369 2510.99 326.167 2523.66 349.315C2536.34 372.245 2542.67 402.054 2542.67 438.742V772.863H2446.95V704.073H2443.02C2436.68 716.739 2427.18 729.187 2414.5 741.416C2401.83 753.645 2385.54 763.8 2365.66 771.88C2345.77 779.96 2321.95 784 2294.19 784ZM2315.5 705.383C2342.6 705.383 2365.77 700.033 2385 689.332C2404.45 678.632 2419.2 664.655 2429.25 647.403C2439.52 629.933 2444.66 611.262 2444.66 591.389V526.53C2441.16 530.024 2434.39 533.3 2424.34 536.357C2414.5 539.196 2403.25 541.708 2390.57 543.891C2377.9 545.857 2365.55 547.713 2353.53 549.46C2341.51 550.989 2331.46 552.299 2323.37 553.391C2304.36 555.793 2286.98 559.833 2271.25 565.511C2255.73 571.189 2243.27 579.378 2233.88 590.079C2224.7 600.561 2220.11 614.537 2220.11 632.008C2220.11 656.248 2229.07 674.592 2246.99 687.039C2264.91 699.269 2287.75 705.383 2315.5 705.383Z" fill="white"/>
<path d="M2885.32 783.017C2836.58 783.017 2794.62 771.989 2759.44 749.933C2724.47 727.658 2697.59 696.976 2678.8 657.886C2660 618.796 2650.61 574.028 2650.61 523.582C2650.61 472.481 2660.22 427.386 2679.45 388.296C2698.68 348.988 2725.78 318.305 2760.75 296.249C2795.72 274.192 2836.91 263.164 2884.33 263.164C2922.58 263.164 2956.67 270.262 2986.61 284.456C3016.55 298.433 3040.7 318.087 3059.06 343.419C3077.63 368.751 3088.67 398.341 3092.16 432.19H2996.77C2991.53 408.605 2979.51 388.296 2960.71 371.262C2942.14 354.229 2917.22 345.712 2885.97 345.712C2858.66 345.712 2834.73 352.918 2814.18 367.331C2793.86 381.526 2778.01 401.835 2766.65 428.259C2755.29 454.465 2749.6 485.475 2749.6 521.289C2749.6 557.977 2755.18 589.642 2766.32 616.284C2777.47 642.927 2793.2 663.564 2813.53 678.195C2834.07 692.826 2858.22 700.142 2885.97 700.142C2904.55 700.142 2921.38 696.757 2936.46 689.987C2951.75 682.999 2964.54 673.063 2974.81 660.179C2985.3 647.294 2992.62 631.789 2996.77 613.664H3092.16C3088.67 646.202 3078.07 675.247 3060.37 700.797C3042.67 726.348 3018.95 746.439 2989.23 761.07C2959.73 775.702 2925.09 783.017 2885.32 783.017Z" fill="white"/>
<path d="M3287.13 602.199L3286.47 482.636H3303.52L3504.14 269.716H3621.5L3392.68 512.117H3377.28L3287.13 602.199ZM3196.98 772.863V102H3295V772.863H3196.98ZM3514.96 772.863L3334.66 533.737L3402.19 465.275L3635.26 772.863H3514.96Z" fill="white"/>
<path d="M3808.84 102V772.863H3710.82V102H3808.84Z" fill="white"/>
<path d="M4087.23 784C4055.32 784 4026.48 778.104 4000.69 766.311C3974.9 754.3 3954.47 736.939 3939.39 714.228C3924.53 691.516 3917.1 663.673 3917.1 630.697C3917.1 602.308 3922.56 578.941 3933.49 560.597C3944.41 542.254 3959.17 527.731 3977.74 517.031C3996.32 506.33 4017.08 498.25 4040.03 492.791C4062.97 487.331 4086.36 483.182 4110.18 480.343C4140.34 476.849 4164.81 474.01 4183.61 471.826C4202.4 469.424 4216.06 465.602 4224.58 460.361C4233.11 455.12 4237.37 446.603 4237.37 434.811V432.518C4237.37 403.91 4229.28 381.744 4213.11 366.021C4197.16 350.298 4173.34 342.436 4141.65 342.436C4108.65 342.436 4082.64 349.752 4063.63 364.383C4044.83 378.796 4031.83 394.847 4024.62 412.536L3932.5 391.572C3943.43 360.998 3959.38 336.321 3980.36 317.541C4001.56 298.542 4025.93 284.784 4053.47 276.267C4081 267.532 4109.96 263.164 4140.34 263.164C4160.44 263.164 4181.75 265.566 4204.26 270.371C4226.99 274.957 4248.19 283.474 4267.85 295.921C4287.74 308.369 4304.02 326.167 4316.7 349.315C4329.37 372.245 4335.71 402.054 4335.71 438.742V772.863H4239.99V704.073H4236.06C4229.72 716.739 4220.21 729.187 4207.54 741.416C4194.86 753.645 4178.58 763.8 4158.69 771.88C4138.81 779.96 4114.99 784 4087.23 784ZM4108.54 705.383C4135.64 705.383 4158.8 700.033 4178.03 689.332C4197.48 678.632 4212.24 664.655 4222.29 647.403C4232.56 629.933 4237.7 611.262 4237.7 591.389V526.53C4234.2 530.024 4227.42 533.3 4217.37 536.357C4207.54 539.196 4196.28 541.708 4183.61 543.891C4170.93 545.857 4158.58 547.713 4146.56 549.46C4134.54 550.989 4124.49 552.299 4116.41 553.391C4097.39 555.793 4080.02 559.833 4064.28 565.511C4048.77 571.189 4036.31 579.378 4026.91 590.079C4017.74 600.561 4013.15 614.537 4013.15 632.008C4013.15 656.248 4022.11 674.592 4040.03 687.039C4057.95 699.269 4080.78 705.383 4108.54 705.383Z" fill="white"/>
<path d="M4564.28 474.119V772.863H4466.26V269.716H4560.34V351.608H4566.57C4578.15 324.966 4596.29 303.565 4620.99 287.404C4645.9 271.244 4677.26 263.164 4715.07 263.164C4749.38 263.164 4779.43 270.371 4805.22 284.784C4831 298.979 4851 320.161 4865.2 348.332C4879.41 376.503 4886.51 411.335 4886.51 452.827V772.863H4788.5V464.62C4788.5 428.15 4778.99 399.652 4759.98 379.124C4740.96 358.378 4714.85 348.005 4681.63 348.005C4658.9 348.005 4638.69 352.918 4620.99 362.745C4603.5 372.572 4589.63 386.986 4579.35 405.985C4569.3 424.765 4564.28 447.477 4564.28 474.119Z" fill="white"/>
<path d="M5234.97 783.017C5185.37 783.017 5142.64 772.426 5106.8 751.243C5071.18 729.842 5043.64 699.815 5024.19 661.161C5004.96 622.29 4995.34 576.758 4995.34 524.565C4995.34 473.027 5004.96 427.604 5024.19 388.296C5043.64 348.988 5070.74 318.305 5105.49 296.249C5140.46 274.192 5181.32 263.164 5228.09 263.164C5256.5 263.164 5284.04 267.859 5310.7 277.25C5337.36 286.64 5361.29 301.381 5382.49 321.472C5403.69 341.563 5420.4 367.659 5432.64 399.761C5444.88 431.644 5451 470.407 5451 516.048V550.77H5050.74V477.395H5354.95C5354.95 451.626 5349.71 428.805 5339.22 408.933C5328.73 388.842 5313.98 373.009 5294.96 361.435C5276.17 349.861 5254.1 344.074 5228.75 344.074C5201.21 344.074 5177.17 350.844 5156.63 364.383C5136.3 377.704 5120.57 395.175 5109.42 416.794C5098.5 438.196 5093.03 461.453 5093.03 486.567V543.891C5093.03 577.522 5098.93 606.13 5110.73 629.715C5122.75 653.3 5139.47 671.316 5160.89 683.764C5182.31 695.993 5207.33 702.108 5235.96 702.108C5254.53 702.108 5271.47 699.487 5286.77 694.246C5302.07 688.786 5315.29 680.706 5326.43 670.006C5337.58 659.305 5346.1 646.093 5352 630.37L5444.77 647.076C5437.34 674.373 5424.01 698.286 5404.78 718.814C5385.77 739.123 5361.84 754.955 5332.99 766.311C5304.36 777.449 5271.69 783.017 5234.97 783.017Z" fill="white"/>
</svg>
